<?xml version="1.0" standalone="no"?>
<!DOCTYPE svg PUBLIC "-//W3C//DTD SVG 20010904//EN"
 "http://www.w3.org/TR/2001/REC-SVG-20010904/DTD/svg10.dtd">
<svg version="1.0" xmlns="http://www.w3.org/2000/svg"
 width="3969.000000pt" height="3948.000000pt" viewBox="0 0 3969.000000 3948.000000"
 preserveAspectRatio="xMidYMid meet">
<g transform="translate(0.000000,3948.000000) scale(0.100000,-0.100000)"
fill="#9B5C6C" stroke="none">
<path d="M750 37790 c0 -651 3 -930 11 -930 5 0 97 41 202 91 354 168 615 280
967 413 2124 800 4970 1247 8565 1345 154 4 -1976 9 -4732 9 l-5013 2 0 -930z"/>
<path d="M13365 38713 c3226 -73 6758 -330 12000 -874 832 -86 835 -86 854
-102 9 -8 41 -17 71 -20 2015 -210 3340 -397 3906 -552 142 -39 208 -70 212
-100 1 -11 -74 -376 -168 -810 -143 -664 -215 -1031 -450 -2300 -161 -872
-1199 -6283 -2459 -12815 l-2180 -11305 -190 -1345 c-105 -740 -196 -1388
-202 -1440 -18 -140 -15 -482 5 -610 32 -206 85 -363 177 -528 53 -93 214
-260 301 -311 171 -100 379 -140 579 -112 406 58 1034 451 1799 1125 379 334
929 868 1372 1333 l250 262 481 -375 c265 -207 486 -381 491 -388 7 -10 -21
-49 -95 -137 -293 -351 -599 -697 -908 -1029 -193 -207 -982 -996 -1199 -1198
-1077 -1006 -2268 -1958 -3573 -2858 -860 -593 -1586 -1021 -2125 -1254 l-139
-60 8198 0 8197 0 0 18905 0 18905 -12657 -2 c-6962 -1 -12608 -3 -12548 -5z"/>
<path d="M13435 36520 c-1768 -48 -3263 -173 -4620 -386 -3044 -478 -5235
-1398 -6602 -2772 -276 -277 -502 -553 -718 -877 -164 -246 -248 -392 -375
-650 -136 -276 -230 -511 -306 -769 l-64 -220 0 -2473 0 -2473 64 -182 c35
-101 86 -264 115 -363 364 -1282 1003 -2785 1852 -4357 128 -237 131 -244 125
-291 -13 -117 -97 -225 -221 -286 -147 -71 -381 -108 -634 -98 -177 6 -235 22
-283 75 -40 44 -200 281 -624 927 -170 259 -329 494 -352 523 l-42 54 0 -6893
0 -6893 28 26 c15 14 290 268 611 564 322 296 671 617 775 713 1702 1554 3090
2955 4537 4576 3341 3746 4796 5532 6814 8365 955 1341 1315 1872 3968 5850
2148 3221 2567 3847 2870 4285 892 1288 1489 2011 2620 3174 158 162 286 296
284 297 -7 7 -1200 137 -1912 208 -1839 184 -3179 277 -4880 337 -374 13
-2624 20 -3030 9z"/>
<path d="M24478 33493 c-1795 -2122 -2891 -3526 -3918 -5018 -445 -648 -757
-1121 -1910 -2905 -1767 -2733 -2676 -4135 -2870 -4425 -504 -753 -1244 -1773
-1982 -2732 l-79 -102 43 -5 c34 -4 6002 -59 7422 -69 l309 -2 18 95 c10 52
61 327 113 611 305 1649 791 4108 1211 6119 511 2450 968 4484 1489 6620 80
327 197 813 261 1080 121 505 172 709 256 1019 28 100 48 185 46 188 -3 2
-187 -211 -409 -474z"/>
<path d="M16697 16526 c-2632 -55 -4471 -96 -4476 -102 -5 -5 -125 -148 -266
-319 -867 -1041 -1731 -1978 -3195 -3460 -1116 -1130 -2009 -1981 -3210 -3059
-195 -175 -393 -355 -440 -400 -47 -44 -1047 -943 -2223 -1996 l-2137 -1915 0
-2182 0 -2183 9912 0 9912 0 -79 49 c-567 349 -915 1112 -1029 2251 -9 85 -20
220 -26 300 -15 216 -35 1193 -34 1695 0 566 -12 470 288 2230 279 1636 456
2711 686 4180 178 1139 303 1912 475 2945 162 971 342 2026 350 2048 3 7 -4
12 -18 11 -12 -1 -2032 -43 -4490 -93z"/>
</g>
</svg>
